<?xml version="1.0" standalone="no"?>
<!DOCTYPE svg PUBLIC "-//W3C//DTD SVG 20010904//EN"
 "http://www.w3.org/TR/2001/REC-SVG-20010904/DTD/svg10.dtd">
<svg version="1.0" xmlns="http://www.w3.org/2000/svg"
 width="96.000000pt" height="96.000000pt" viewBox="0 0 96.000000 96.000000"
 preserveAspectRatio="xMidYMid meet">
<metadata>
Created by potrace 1.11, written by Peter Selinger 2001-2013
</metadata>
<g transform="translate(0.000000,96.000000) scale(0.100000,-0.100000)"
fill="#000000" stroke="none">
<path d="M152 868 c-17 -17 -17 -759 0 -776 9 -9 89 -12 300 -12 l288 0 0 400
0 400 -288 0 c-211 0 -291 -3 -300 -12z"/>
<path d="M763 869 c16 -9 17 -39 17 -389 0 -350 -1 -380 -17 -389 -16 -9 -15
-10 7 -11 15 0 31 5 38 12 17 17 17 759 0 776 -7 7 -23 12 -37 12 -23 -1 -24
-2 -8 -11z"/>
</g>
</svg>
